<svg width="483" height="483" viewBox="0 0 483 483" fill="none" xmlns="http://www.w3.org/2000/svg">
<path d="M241.5 57.96L61.6309 122.102L89.0653 359.932L241.5 444.36L393.935 359.932L421.369 122.102L241.5 57.96Z" fill="#DD0031"/>
<path d="M241.5 57.96V100.85V100.657V296.369V444.36L393.935 359.932L421.369 122.102L241.5 57.96Z" fill="#C3002F"/>
<path d="M249.055 120.19C249.055 120.19 249.426 113.733 243.738 112.717V105.766H248.313V102.798H243.738V99H240.902V102.798H236.326V105.766H240.902V112.717C235.213 113.732 235.584 120.19 235.584 120.19" fill="white"/>
<path d="M249.055 120.19C249.055 120.19 249.426 113.733 243.738 112.717V105.766H248.313V102.798H243.738V99H240.902V102.798H236.326V105.766H240.902V112.717C235.213 113.732 235.584 120.19 235.584 120.19" stroke="black" stroke-width="1.2"/>
<path d="M226.141 134.449H258.353C258.353 125.707 250.245 118.701 242.247 118.701C234.248 118.701 226.141 125.707 226.141 134.449Z" fill="white" stroke="black" stroke-width="1.2"/>
<path d="M258.98 142.178L260.805 141.555V134.442H223.783V141.555L225.608 142.178H258.98Z" fill="white" stroke="black" stroke-width="1.2"/>
<path d="M258.615 211.579V142.17H225.885V211.579" fill="white"/>
<path d="M258.615 211.579V142.17H225.885V211.579" stroke="black" stroke-width="1.2"/>
<path d="M175.057 267.114C180.436 242.74 178.486 218.599 178.486 218.599H306.05C306.05 218.599 304.1 242.74 309.479 267.114C315.316 293.576 320.549 302.727 320.549 302.727V313.374H164.014L164 302.727C164 302.727 169.217 293.576 175.057 267.114Z" fill="white" stroke="black"/>
<path d="M194.031 125.313H200.135V133.435H204.076V125.313H210.416V133.435H214.589V125.313H220.66V141.309L218.622 142.188H185.447L182.994 141.309V125.313H189.376V133.435H194.034L194.031 125.313Z" fill="white" stroke="black" stroke-width="1.2"/>
<path d="M185.419 142.178H218.551V212.549H185.419V142.178Z" fill="white" stroke="black" stroke-width="1.2"/>
<path d="M193.082 115.76L196.089 110.557L193.082 105.353H199.095L202.102 100.15L205.109 105.353H211.122L208.115 110.557L211.122 115.76H205.109L202.102 120.97L199.095 115.76H193.082Z" fill="white" stroke="black" stroke-width="1.2"/>
<path d="M242.998 200.486H237.138V210.017H227.614V200.486H217.149V210.017H208.421V200.486H198.292V210.017H189.63V200.486H177.829V218.541L180.64 219.226H242.999" fill="white"/>
<path d="M242.998 200.486H237.138V210.017H227.614V200.486H217.149V210.017H208.421V200.486H198.292V210.017H189.63V200.486H177.829V218.541L180.64 219.226H242.999" stroke="black" stroke-width="1.2"/>
<path d="M185.419 142.542H218.522" stroke="black" stroke-width="2"/>
<path d="M217.748 313.382V259.539C217.748 254.659 224.349 237.055 242.269 237.055" stroke="black" stroke-width="2.5"/>
<path d="M225.484 313.382V262.414C225.484 254.102 232.106 244.586 242.269 244.586" stroke="black"/>
<path d="M230.519 299.662C230.519 297.356 231.38 297.356 232.052 297.356C232.73 297.356 231.972 298.283 231.972 299.545C231.972 300.808 232.701 301.953 232.052 301.953C231.402 301.953 230.519 301.749 230.519 299.647V299.662ZM225.484 299.589H230.192Z" fill="black"/>
<path d="M225.484 299.589H230.192M230.519 299.662C230.519 297.356 231.38 297.356 232.052 297.356C232.73 297.356 231.972 298.283 231.972 299.545C231.972 300.808 232.701 301.953 232.052 301.953C231.402 301.953 230.519 301.749 230.519 299.647V299.662Z" stroke="black"/>
<path d="M164.183 302.727H217.456" stroke="black" stroke-width="2"/>
<path d="M230.519 263.173C230.519 260.867 231.38 260.867 232.052 260.867C232.73 260.867 231.972 261.794 231.972 263.057C231.972 264.319 232.701 265.465 232.052 265.465C231.402 265.465 230.519 265.261 230.519 263.159V263.173ZM225.484 263.1H230.192Z" fill="black"/>
<path d="M225.484 263.1H230.192M230.519 263.173C230.519 260.867 231.38 260.867 232.052 260.867C232.73 260.867 231.972 261.794 231.972 263.057C231.972 264.319 232.701 265.465 232.052 265.465C231.402 265.465 230.519 265.261 230.519 263.159V263.173Z" stroke="black"/>
<path d="M290.506 125.313H284.402V133.435H280.461V125.313H274.121V133.435H269.949V125.313H263.878V141.309L265.915 142.188H299.091L301.543 141.309V125.313H295.162V133.435H290.503L290.506 125.313Z" fill="white" stroke="black" stroke-width="1.2"/>
<path d="M299.118 142.178H265.986V212.549H299.118V142.178Z" fill="white" stroke="black" stroke-width="1.2"/>
<path d="M291.455 115.76L288.448 110.557L291.455 105.353H285.442L282.435 100.15L279.428 105.353H273.415L276.422 110.557L273.415 115.76H279.428L282.435 120.97L285.442 115.76H291.455Z" fill="white" stroke="black" stroke-width="1.2"/>
<path d="M241.539 200.486H247.4V210.017H256.923V200.486H267.388V210.017H276.116V200.486H286.245V210.017H294.908V200.486H306.708V218.541L303.897 219.226H241.538" fill="white"/>
<path d="M241.539 200.486H247.4V210.017H256.923V200.486H267.388V210.017H276.116V200.486H286.245V210.017H294.908V200.486H306.708V218.541L303.897 219.226H241.538" stroke="black" stroke-width="1.2"/>
<path d="M299.118 142.542H266.015" stroke="black" stroke-width="2"/>
<path d="M266.789 313.382V259.539C266.789 254.659 260.188 237.055 242.269 237.055" stroke="black" stroke-width="2.5"/>
<path d="M259.053 313.382V262.414C259.053 254.102 252.431 244.586 242.269 244.586" stroke="black"/>
<path d="M254.018 299.662C254.018 297.356 253.157 297.356 252.485 297.356C251.807 297.356 252.566 298.283 252.566 299.545C252.566 300.808 251.836 301.953 252.485 301.953C253.135 301.953 254.018 301.749 254.018 299.647V299.662ZM259.053 299.589H254.346Z" fill="black"/>
<path d="M259.053 299.589H254.346M254.018 299.662C254.018 297.356 253.157 297.356 252.485 297.356C251.807 297.356 252.566 298.283 252.566 299.545C252.566 300.808 251.836 301.953 252.485 301.953C253.135 301.953 254.018 301.749 254.018 299.647V299.662Z" stroke="black"/>
<path d="M320.354 302.727H267.081" stroke="black" stroke-width="2"/>
<path d="M254.018 263.173C254.018 260.867 253.157 260.867 252.485 260.867C251.807 260.867 252.566 261.794 252.566 263.057C252.566 264.319 251.836 265.465 252.485 265.465C253.135 265.465 254.018 265.261 254.018 263.159V263.173ZM259.053 263.1H254.346Z" fill="black"/>
<path d="M259.053 263.1H254.346M254.018 263.173C254.018 260.867 253.157 260.867 252.485 260.867C251.807 260.867 252.566 261.794 252.566 263.057C252.566 264.319 251.836 265.465 252.485 265.465C253.135 265.465 254.018 265.261 254.018 263.159V263.173Z" stroke="black"/>
<path d="M178.195 218.584H306.343ZM226.068 142.542H258.294Z" fill="black"/>
<path d="M178.195 218.584H306.343M226.068 142.542H258.294" stroke="black" stroke-width="2"/>
<path d="M242.268 244.564V313.36Z" fill="black"/>
<path d="M242.268 244.564V313.36" stroke="black"/>
<path d="M171.818 364.455L169.409 365.136C169.258 364.735 169.034 364.345 168.739 363.966C168.451 363.58 168.057 363.261 167.557 363.011C167.057 362.761 166.417 362.636 165.636 362.636C164.568 362.636 163.678 362.883 162.966 363.375C162.261 363.86 161.909 364.477 161.909 365.227C161.909 365.894 162.152 366.42 162.636 366.807C163.121 367.193 163.879 367.515 164.909 367.773L167.5 368.409C169.061 368.788 170.223 369.367 170.989 370.148C171.754 370.92 172.136 371.917 172.136 373.136C172.136 374.136 171.848 375.03 171.273 375.818C170.705 376.606 169.909 377.227 168.886 377.682C167.864 378.136 166.674 378.364 165.318 378.364C163.538 378.364 162.064 377.977 160.898 377.205C159.731 376.432 158.992 375.303 158.682 373.818L161.227 373.182C161.47 374.121 161.928 374.826 162.602 375.295C163.284 375.765 164.174 376 165.273 376C166.523 376 167.515 375.735 168.25 375.205C168.992 374.667 169.364 374.023 169.364 373.273C169.364 372.667 169.152 372.159 168.727 371.75C168.303 371.333 167.652 371.023 166.773 370.818L163.864 370.136C162.265 369.758 161.091 369.17 160.341 368.375C159.598 367.572 159.227 366.568 159.227 365.364C159.227 364.379 159.504 363.508 160.057 362.75C160.617 361.992 161.379 361.398 162.341 360.966C163.311 360.534 164.409 360.318 165.636 360.318C167.364 360.318 168.72 360.697 169.705 361.455C170.697 362.212 171.402 363.212 171.818 364.455ZM181.31 378.409C180.204 378.409 179.2 378.201 178.298 377.784C177.397 377.36 176.681 376.75 176.151 375.955C175.62 375.152 175.355 374.182 175.355 373.045C175.355 372.045 175.552 371.235 175.946 370.614C176.34 369.985 176.866 369.492 177.526 369.136C178.185 368.78 178.912 368.515 179.707 368.341C180.51 368.159 181.317 368.015 182.128 367.909C183.188 367.773 184.048 367.67 184.707 367.602C185.374 367.527 185.859 367.402 186.162 367.227C186.473 367.053 186.628 366.75 186.628 366.318V366.227C186.628 365.106 186.321 364.235 185.707 363.614C185.101 362.992 184.181 362.682 182.946 362.682C181.666 362.682 180.662 362.962 179.935 363.523C179.207 364.083 178.696 364.682 178.401 365.318L175.855 364.409C176.31 363.348 176.916 362.523 177.673 361.932C178.438 361.333 179.272 360.917 180.173 360.682C181.082 360.439 181.976 360.318 182.855 360.318C183.416 360.318 184.06 360.386 184.787 360.523C185.522 360.652 186.23 360.92 186.912 361.33C187.601 361.739 188.173 362.356 188.628 363.182C189.082 364.008 189.31 365.114 189.31 366.5V378H186.628V375.636H186.491C186.31 376.015 186.007 376.42 185.582 376.852C185.158 377.284 184.594 377.652 183.889 377.955C183.185 378.258 182.325 378.409 181.31 378.409ZM181.719 376C182.779 376 183.673 375.792 184.401 375.375C185.135 374.958 185.688 374.42 186.06 373.761C186.438 373.102 186.628 372.409 186.628 371.682V369.227C186.514 369.364 186.264 369.489 185.878 369.602C185.499 369.708 185.06 369.803 184.56 369.886C184.067 369.962 183.586 370.03 183.116 370.091C182.654 370.144 182.279 370.189 181.991 370.227C181.295 370.318 180.643 370.466 180.037 370.67C179.438 370.867 178.954 371.167 178.582 371.568C178.219 371.962 178.037 372.5 178.037 373.182C178.037 374.114 178.382 374.818 179.071 375.295C179.768 375.765 180.651 376 181.719 376ZM201.977 360.545V362.818H192.568V360.545H201.977ZM195.386 378V358.136C195.386 357.136 195.621 356.303 196.091 355.636C196.561 354.97 197.17 354.47 197.92 354.136C198.67 353.803 199.462 353.636 200.295 353.636C200.955 353.636 201.492 353.689 201.909 353.795C202.326 353.902 202.636 354 202.841 354.091L202.068 356.409C201.932 356.364 201.742 356.307 201.5 356.239C201.265 356.17 200.955 356.136 200.568 356.136C199.682 356.136 199.042 356.36 198.648 356.807C198.261 357.254 198.068 357.909 198.068 358.773V378H195.386ZM212.335 378.364C210.653 378.364 209.203 377.992 207.983 377.25C206.771 376.5 205.835 375.455 205.176 374.114C204.525 372.765 204.199 371.197 204.199 369.409C204.199 367.621 204.525 366.045 205.176 364.682C205.835 363.311 206.752 362.242 207.926 361.477C209.108 360.705 210.487 360.318 212.062 360.318C212.972 360.318 213.869 360.47 214.756 360.773C215.642 361.076 216.449 361.568 217.176 362.25C217.903 362.924 218.483 363.818 218.915 364.932C219.347 366.045 219.562 367.417 219.562 369.045V370.182H206.108V367.864H216.835C216.835 366.879 216.638 366 216.244 365.227C215.858 364.455 215.305 363.845 214.585 363.398C213.873 362.951 213.032 362.727 212.062 362.727C210.994 362.727 210.07 362.992 209.29 363.523C208.517 364.045 207.922 364.727 207.506 365.568C207.089 366.409 206.881 367.311 206.881 368.273V369.818C206.881 371.136 207.108 372.254 207.562 373.17C208.025 374.08 208.665 374.773 209.483 375.25C210.301 375.72 211.252 375.955 212.335 375.955C213.04 375.955 213.676 375.856 214.244 375.659C214.82 375.455 215.316 375.152 215.733 374.75C216.15 374.341 216.472 373.833 216.699 373.227L219.29 373.955C219.017 374.833 218.559 375.606 217.915 376.273C217.271 376.932 216.475 377.447 215.528 377.818C214.581 378.182 213.517 378.364 212.335 378.364ZM233.642 366.773V369.273H223.46V366.773H233.642ZM238.361 378V360.545H240.952V363.182H241.134C241.452 362.318 242.027 361.617 242.861 361.08C243.694 360.542 244.634 360.273 245.679 360.273C245.876 360.273 246.122 360.277 246.418 360.284C246.713 360.292 246.937 360.303 247.088 360.318V363.045C246.997 363.023 246.789 362.989 246.463 362.943C246.145 362.89 245.808 362.864 245.452 362.864C244.603 362.864 243.846 363.042 243.179 363.398C242.52 363.746 241.997 364.231 241.611 364.852C241.232 365.466 241.043 366.167 241.043 366.955V378H238.361ZM250.267 378V360.545H252.949V378H250.267ZM251.631 357.636C251.108 357.636 250.657 357.458 250.278 357.102C249.907 356.746 249.722 356.318 249.722 355.818C249.722 355.318 249.907 354.89 250.278 354.534C250.657 354.178 251.108 354 251.631 354C252.153 354 252.6 354.178 252.972 354.534C253.35 354.89 253.54 355.318 253.54 355.818C253.54 356.318 253.35 356.746 252.972 357.102C252.6 357.458 252.153 357.636 251.631 357.636ZM264.452 378.364C262.997 378.364 261.713 377.996 260.599 377.261C259.486 376.519 258.615 375.473 257.986 374.125C257.357 372.769 257.043 371.167 257.043 369.318C257.043 367.485 257.357 365.894 257.986 364.545C258.615 363.197 259.49 362.155 260.611 361.42C261.732 360.686 263.027 360.318 264.497 360.318C265.634 360.318 266.531 360.508 267.19 360.886C267.857 361.258 268.365 361.682 268.713 362.159C269.069 362.629 269.346 363.015 269.543 363.318H269.77V354.727H272.452V378H269.861V375.318H269.543C269.346 375.636 269.065 376.038 268.702 376.523C268.338 377 267.819 377.428 267.145 377.807C266.471 378.178 265.573 378.364 264.452 378.364ZM264.815 375.955C265.891 375.955 266.8 375.674 267.543 375.114C268.285 374.545 268.849 373.761 269.236 372.761C269.622 371.754 269.815 370.591 269.815 369.273C269.815 367.97 269.626 366.83 269.247 365.852C268.868 364.867 268.308 364.102 267.565 363.557C266.823 363.004 265.906 362.727 264.815 362.727C263.679 362.727 262.732 363.019 261.974 363.602C261.224 364.178 260.66 364.962 260.281 365.955C259.91 366.939 259.724 368.045 259.724 369.273C259.724 370.515 259.914 371.644 260.293 372.659C260.679 373.667 261.247 374.47 261.997 375.068C262.755 375.659 263.694 375.955 264.815 375.955ZM285.054 378.364C283.372 378.364 281.921 377.992 280.702 377.25C279.49 376.5 278.554 375.455 277.895 374.114C277.243 372.765 276.918 371.197 276.918 369.409C276.918 367.621 277.243 366.045 277.895 364.682C278.554 363.311 279.471 362.242 280.645 361.477C281.827 360.705 283.205 360.318 284.781 360.318C285.69 360.318 286.588 360.47 287.474 360.773C288.361 361.076 289.168 361.568 289.895 362.25C290.622 362.924 291.202 363.818 291.634 364.932C292.065 366.045 292.281 367.417 292.281 369.045V370.182H278.827V367.864H289.554C289.554 366.879 289.357 366 288.963 365.227C288.577 364.455 288.024 363.845 287.304 363.398C286.592 362.951 285.751 362.727 284.781 362.727C283.713 362.727 282.789 362.992 282.009 363.523C281.236 364.045 280.641 364.727 280.224 365.568C279.808 366.409 279.599 367.311 279.599 368.273V369.818C279.599 371.136 279.827 372.254 280.281 373.17C280.743 374.08 281.384 374.773 282.202 375.25C283.02 375.72 283.971 375.955 285.054 375.955C285.759 375.955 286.395 375.856 286.963 375.659C287.539 375.455 288.035 375.152 288.452 374.75C288.868 374.341 289.19 373.833 289.418 373.227L292.009 373.955C291.736 374.833 291.277 375.606 290.634 376.273C289.99 376.932 289.194 377.447 288.247 377.818C287.3 378.182 286.236 378.364 285.054 378.364ZM298.315 378.182C297.755 378.182 297.274 377.981 296.872 377.58C296.471 377.178 296.27 376.697 296.27 376.136C296.27 375.576 296.471 375.095 296.872 374.693C297.274 374.292 297.755 374.091 298.315 374.091C298.876 374.091 299.357 374.292 299.759 374.693C300.16 375.095 300.361 375.576 300.361 376.136C300.361 376.508 300.266 376.848 300.077 377.159C299.895 377.47 299.649 377.72 299.338 377.909C299.035 378.091 298.694 378.182 298.315 378.182ZM305.173 378V360.545H307.855V378H305.173ZM306.537 357.636C306.014 357.636 305.563 357.458 305.185 357.102C304.813 356.746 304.628 356.318 304.628 355.818C304.628 355.318 304.813 354.89 305.185 354.534C305.563 354.178 306.014 354 306.537 354C307.06 354 307.507 354.178 307.878 354.534C308.257 354.89 308.446 355.318 308.446 355.818C308.446 356.318 308.257 356.746 307.878 357.102C307.507 357.458 307.06 357.636 306.537 357.636ZM319.858 378.364C318.282 378.364 316.9 377.989 315.71 377.239C314.528 376.489 313.604 375.439 312.938 374.091C312.278 372.742 311.949 371.167 311.949 369.364C311.949 367.545 312.278 365.958 312.938 364.602C313.604 363.246 314.528 362.193 315.71 361.443C316.9 360.693 318.282 360.318 319.858 360.318C321.434 360.318 322.813 360.693 323.994 361.443C325.184 362.193 326.108 363.246 326.767 364.602C327.434 365.958 327.767 367.545 327.767 369.364C327.767 371.167 327.434 372.742 326.767 374.091C326.108 375.439 325.184 376.489 323.994 377.239C322.813 377.989 321.434 378.364 319.858 378.364ZM319.858 375.955C321.055 375.955 322.04 375.648 322.812 375.034C323.585 374.42 324.157 373.614 324.528 372.614C324.9 371.614 325.085 370.53 325.085 369.364C325.085 368.197 324.9 367.11 324.528 366.102C324.157 365.095 323.585 364.28 322.812 363.659C322.04 363.038 321.055 362.727 319.858 362.727C318.661 362.727 317.676 363.038 316.903 363.659C316.131 364.28 315.559 365.095 315.188 366.102C314.816 367.11 314.631 368.197 314.631 369.364C314.631 370.53 314.816 371.614 315.188 372.614C315.559 373.614 316.131 374.42 316.903 375.034C317.676 375.648 318.661 375.955 319.858 375.955Z" fill="white"/>
<g clip-path="url(#clip0_802_5489)">
<path fill-rule="evenodd" clip-rule="evenodd" d="M307.386 177C319.507 184.633 330.454 188.25 339.855 187.395C341.494 220.387 329.239 239.87 307.514 248C286.534 240.39 274.128 221.745 275.046 186.892C286.08 187.47 296.899 185.095 307.386 177Z" fill="#51B53C"/>
<path fill-rule="evenodd" clip-rule="evenodd" d="M307.398 181.073C318.124 187.834 327.821 191.029 336.134 190.272C337.588 219.474 326.734 236.721 307.509 243.921C288.941 237.184 277.959 220.682 278.773 189.833C288.54 190.341 298.12 188.244 307.398 181.073Z" fill="white"/>
<path fill-rule="evenodd" clip-rule="evenodd" d="M307.695 188.29C315.961 193.496 323.426 195.958 329.832 195.38C330.948 217.879 322.595 231.163 307.776 236.71C307.683 236.675 307.59 236.64 307.497 236.606C307.404 236.64 307.311 236.675 307.218 236.71C292.405 231.163 284.046 217.879 285.162 195.38C291.568 195.963 299.039 193.496 307.299 188.29L307.491 188.435L307.695 188.29Z" fill="#51B53C"/>
<path d="M295.603 210.674L299.945 210.616L300.271 210.697C301.149 211.2 301.974 211.772 302.748 212.425C303.306 212.893 303.835 213.401 304.34 213.956C305.898 211.466 307.561 209.172 309.317 207.069C311.241 204.763 312.444 203.498 314.584 201.585L315.008 201.424H319.752L318.793 202.475C315.857 205.717 314.02 208.247 311.613 211.703C309.2 215.169 307.05 218.74 305.131 222.415L304.532 223.559L303.986 222.392C302.974 220.237 301.765 218.261 300.323 216.493C298.882 214.725 297.202 213.153 295.242 211.818L295.603 210.674Z" fill="white"/>
</g>
<path d="M214.703 266.543L214.123 268.124L203.979 295.78L203.553 296.94L202.333 296.744C201.264 296.572 200.178 296.467 199.08 296.433L199.079 296.433C185.235 296.006 173.684 306.863 173.257 320.71C172.832 334.521 183.725 346.107 197.534 346.532L197.534 346.532C211.345 346.958 222.93 336.066 223.356 322.255C223.645 312.904 218.797 304.574 211.234 300.005L210.175 299.365L210.601 298.204L211.341 296.187L212.098 294.124L213.744 295.581L247.763 325.699L247.77 325.705L247.77 325.705C249.556 327.307 252.381 326.688 253.348 324.51L253.352 324.501L253.352 324.501L265.251 298.134L266.413 295.558L267.895 297.964L271.553 303.903L272.203 304.957L271.291 305.795C266.205 310.465 263.392 316.761 263.182 323.471L263.181 323.503L263.18 323.504C262.765 337.337 273.615 348.879 287.457 349.305L287.457 349.305C301.302 349.732 312.853 338.875 313.279 325.028L314.778 325.075L313.279 325.028C313.705 311.216 302.884 299.634 289.002 299.207L289.002 299.207C285.653 299.103 282.389 299.655 279.355 300.803L278.196 301.242L277.547 300.187L270.333 288.475L269.916 287.797L270.243 287.071L272.218 282.695L272.63 281.782L273.631 281.813L281.604 282.058L281.604 282.058C283.548 282.118 285.175 280.593 285.237 278.643L214.703 266.543ZM214.703 266.543L213.066 266.149L203.722 263.903L203.722 263.903M214.703 266.543L203.722 263.903M203.722 263.903C201.831 263.449 200.663 261.543 201.118 259.651C201.573 257.757 203.477 256.591 205.37 257.047L205.371 257.047L220.201 260.612L220.202 260.613C222.243 261.102 223.415 263.271 222.687 265.255L217.586 279.16L216.899 281.032L218.888 281.173L256.255 283.829L257.021 280.986C255.809 280.393 254.999 279.137 255.043 277.712C255.104 275.762 256.731 274.235 258.675 274.295L258.676 274.296L281.82 275.009L281.821 275.009M203.722 263.903L281.821 275.009M281.821 275.009C283.767 275.069 285.296 276.695 285.237 278.642L281.821 275.009ZM216.307 322.038C216.491 316.092 213.793 310.725 209.364 307.266L207.741 306L207.033 307.932L201.617 322.697C200.946 324.525 198.92 325.464 197.092 324.793L197.085 324.791C197.078 324.788 197.069 324.785 197.045 324.776C195.248 324.088 194.331 322.081 194.996 320.268L200.41 305.508L201.117 303.58L199.065 303.493C188.964 303.064 180.613 310.975 180.306 320.927C179.999 330.85 187.82 339.177 197.751 339.483L197.751 339.483C207.678 339.789 216.001 331.965 216.307 322.038ZM216.307 322.038L214.814 321.992L216.307 322.038ZM272.399 327.295L270.348 327.232L270.91 329.205C272.972 336.449 279.545 342.005 287.674 342.256C297.624 342.563 305.925 334.757 306.23 324.811C306.538 314.861 298.732 306.562 288.785 306.255C287.117 306.204 285.479 306.384 283.903 306.771L281.905 307.262L282.984 309.014L291.232 322.406C291.912 323.511 291.931 324.899 291.282 326.022C290.632 327.144 289.418 327.819 288.121 327.78C288.121 327.78 288.121 327.78 288.121 327.78L272.399 327.295ZM276.981 312.716L275.906 310.97L274.567 312.523C273.103 314.223 271.984 316.161 271.248 318.249L270.567 320.183L272.617 320.246L279.01 320.444L281.794 320.53L280.333 318.158L276.981 312.716ZM259.753 293.171L260.638 291.211L258.493 291.058L220.264 288.341L215.851 288.027L219.164 290.96L247.355 315.919L248.879 317.268L249.716 315.413L259.753 293.171Z" fill="white" stroke="#920020" stroke-width="3"/>
<defs>
<clipPath id="clip0_802_5489">
<rect width="65" height="71" fill="white" transform="translate(275 177)"/>
</clipPath>
</defs>
</svg>
