<svg width="50" height="50" viewBox="0 0 50 50" fill="none" xmlns="http://www.w3.org/2000/svg">
<rect width="50" height="50" fill="#37B70D"/>
<g clip-path="url(#clip0_802_5467)">
<path d="M28.8759 27.3909C27.0861 27.5974 25.5755 27.7701 25.5755 27.7701L25.8354 34.9896C25.8698 35.942 25.1253 36.7408 24.1741 36.7751C23.2219 36.8093 22.4228 36.0653 22.3886 35.1137L22.071 26.298C22.0583 25.9451 22.1528 25.6119 22.3264 25.3308C22.5958 24.8943 23.0557 24.5813 23.6007 24.5222C24.3507 24.4408 25.6405 24.3469 25.6405 24.3469C25.6405 24.3469 27.5147 24.7478 28.1698 22.8726L30.0382 17.8736L26.8988 22.3049C26.6207 22.6976 26.1643 22.925 25.6833 22.9106L19.9442 22.7393C19.1508 22.7156 18.5269 22.0533 18.5506 21.2599C18.5744 20.4664 19.2367 19.8427 20.03 19.8663L24.9989 20.0147L27.6928 16.2123C27.5619 15.0361 27.8238 14.1309 29 14L30.9448 13.9638C30.9817 13.9597 31.018 13.9593 31.0546 13.9571L33.3205 14.3864C32.6735 22.1586 33.2395 13.5969 33.3205 14.3864C33.4015 15.176 34.1101 14.3053 33.3205 14.3864C33.6914 14.0812 33.3697 14.8661 33.3205 14.3864L33.3066 15.826C33.3078 15.8362 33.3103 15.8459 33.3115 15.8562L33.874 21.1454C34.2037 24.2459 31.9734 27.0335 28.8759 27.3909Z" fill="#F9F9F9"/>
<path d="M30.8366 11.1661C29.9164 12.6567 27.9619 13.1191 26.4713 12.1988C24.9806 11.2786 24.5182 9.32413 25.4385 7.83347C26.3588 6.34281 28.3132 5.88043 29.8039 6.8007C31.2945 7.72097 31.7569 9.67541 30.8366 11.1661Z" fill="#F9F9F9"/>
<path d="M16.0062 24.3438L18.1434 24.8577L15.823 31.1838C15.5642 31.1422 15.3011 31.1166 15.0349 31.1085C11.6787 31.0048 8.87809 33.6373 8.77458 36.9941C8.67156 40.3427 11.3119 43.1514 14.6603 43.2543C18.0089 43.3577 20.8173 40.7174 20.9206 37.3687C20.9905 35.1014 19.8145 33.0817 17.982 31.9748L18.1513 31.5134L25.9332 38.4029C26.5163 38.9256 27.4367 38.7231 27.7517 38.013L30.4737 31.9816L31.3104 33.3401C30.0782 34.4716 29.3956 35.9994 29.3446 37.6256C29.3445 37.6266 29.3444 37.6275 29.3443 37.6286C29.3443 37.6298 29.3444 37.6309 29.3444 37.6321C29.2428 40.9862 31.8737 43.7854 35.23 43.8887C38.5864 43.9923 41.3868 41.36 41.4902 38.0031C41.5935 34.6548 38.97 31.8465 35.6046 31.743C34.7937 31.7179 34.0022 31.8515 33.2657 32.1302L31.6156 29.451L32.0674 28.45L33.891 28.5062C34.5253 28.5258 35.0556 28.0278 35.0756 27.3924C35.0951 26.7576 34.5964 26.2274 33.9618 26.2079L28.6674 26.0445C28.0332 26.0249 27.5028 26.5229 27.4829 27.1583C27.4685 27.6244 27.734 28.0335 28.1273 28.2261L19.5798 27.6185L20.7467 24.4376C20.984 23.7907 20.602 23.0835 19.9361 22.9239L16.5437 22.1083C15.9263 21.9598 15.3054 22.3399 15.157 22.9573C15.0086 23.5746 15.3894 24.1958 16.0062 24.3438ZM35.5338 34.0412C37.6197 34.1055 39.2565 35.8457 39.1919 37.9322C39.1278 40.0181 37.3874 41.6548 35.3008 41.5904C33.5966 41.5379 32.2179 40.3734 31.7854 38.854L35.3819 38.9649C35.8046 38.9778 36.2004 38.7577 36.4123 38.3917C36.6242 38.0257 36.618 37.5729 36.3963 37.2128L34.5095 34.1494C34.8403 34.0681 35.1839 34.0304 35.5338 34.0412ZM32.552 35.356L33.3188 36.6008L31.8564 36.5557C32.0104 36.1184 32.2449 35.7124 32.552 35.356ZM28.5906 30.5642L26.2947 35.6519L19.846 29.9427L28.5906 30.5642ZM13.7681 36.7855C13.5513 37.3766 13.8502 38.031 14.4365 38.2552C14.4415 38.2571 14.4464 38.259 14.4515 38.2609C15.0476 38.4796 15.7081 38.1735 15.9268 37.5774L17.1657 34.2C18.0959 34.9262 18.6607 36.0512 18.6221 37.2978C18.5579 39.3792 16.8124 41.0202 14.731 40.9561C12.6488 40.8918 11.0086 39.1455 11.0728 37.065C11.1372 34.9775 12.8886 33.3193 15.0066 33.4091L13.7681 36.7855Z" fill="#F9F9F9"/>
</g>
<defs>
<clipPath id="clip0_802_5467">
<rect width="46" height="46" fill="white" transform="translate(2 2)"/>
</clipPath>
</defs>
</svg>
