<svg width="50" height="50" viewBox="0 0 50 50" fill="none" xmlns="http://www.w3.org/2000/svg">
<rect width="50" height="50" fill="#F5C41A"/>
<g clip-path="url(#clip0_802_5421)">
<path d="M24.8667 20.4084C25.9826 18.9939 26.9231 17.7992 26.9231 17.7992L32.9296 21.8129C33.722 22.3424 34.7928 22.1286 35.3216 21.3372C35.851 20.545 35.6376 19.4742 34.8459 18.9452L27.5114 14.0439C27.2178 13.8477 26.8847 13.7531 26.5543 13.7531C26.0414 13.7531 25.5334 13.98 25.1968 14.4127C24.7336 15.0082 23.9762 16.0563 23.9762 16.0563C23.9762 16.0563 23.3326 17.8617 21.393 17.4341L16.1578 16.3978L21.5775 16.0543C22.0578 16.0239 22.491 15.755 22.7315 15.3382L25.6006 10.3648C25.9972 9.67724 25.7614 8.79842 25.0738 8.40182C24.3861 8.00522 23.5075 8.24112 23.1109 8.92855L20.6268 13.2346L15.9762 13.5293L18.8013 12.5869L17.7172 11.7386C16.7851 11.0094 15.4384 11.1738 14.7092 12.1059L12.3546 15.1153C12.3317 15.1446 12.3124 15.1753 12.2912 15.2053L9.25116 16.2429L4.31311 12.447C3.68383 11.9633 2.78166 12.0813 2.29784 12.7106C1.81402 13.3399 1.93212 14.2421 2.5615 14.7259L8.11048 18.9912C8.49275 19.285 8.99601 19.367 9.45056 19.2119L12.6985 18.1033C12.7066 18.1097 12.7135 18.1169 12.7216 18.1233L16.9267 21.3804C19.3918 23.2897 22.9353 22.8563 24.8667 20.4084Z" fill="#F9F9F9"/>
<path d="M10.0308 13.5536C11.7827 13.5536 13.2028 12.1335 13.2028 10.3816C13.2028 8.62977 11.7827 7.20963 10.0308 7.20963C8.27898 7.20963 6.85883 8.62977 6.85883 10.3816C6.85883 12.1335 8.27898 13.5536 10.0308 13.5536Z" fill="#F9F9F9"/>
<path d="M45.4252 38.0538L43.2454 38.3372L43.1532 31.5997C43.4097 31.546 43.6646 31.476 43.9161 31.3884C47.088 30.2865 48.7635 26.8273 47.6611 23.6549C46.5613 20.4905 43.0918 18.8102 39.9276 19.9101C36.763 21.0097 35.083 24.4789 36.1826 27.6436C36.9272 29.7863 38.7471 31.2527 40.854 31.632L40.8607 32.1235L31.1313 28.4681C30.4 28.1882 29.6126 28.7061 29.572 29.4818L29.184 36.0877L27.9172 35.1176C28.664 33.6207 28.7558 31.9498 28.2226 30.4127C28.2223 30.4117 28.2221 30.4108 28.2218 30.4098C28.2214 30.4087 28.2209 30.4077 28.2205 30.4066C27.1173 27.2374 23.6601 25.5626 20.4883 26.6649C17.3163 27.7671 15.6409 31.226 16.7433 34.3984C17.8429 37.5627 21.2964 39.2486 24.4768 38.1433C25.2432 37.877 25.9347 37.4696 26.5231 36.9461L29.0213 38.8592L28.9569 39.9555L27.2335 40.5544C26.6341 40.7627 26.3166 41.4172 26.5249 42.0178C26.7334 42.6177 27.3887 42.9348 27.9884 42.7264L32.9918 40.9878C33.5912 40.7796 33.9087 40.125 33.7004 39.5244C33.5473 39.0839 33.1532 38.7967 32.717 38.7573L40.9177 36.2716L40.964 39.6595C40.9734 40.3485 41.5828 40.8726 42.2617 40.7838L45.7218 40.3339C46.3514 40.2521 46.7956 39.6752 46.7137 39.0455C46.6318 38.4159 46.0542 37.9718 45.4252 38.0538ZM23.722 35.9714C21.7508 36.6564 19.6003 35.6156 18.9154 33.6437C18.2302 31.6726 19.2711 29.5221 21.2431 28.837C22.8536 28.2773 24.5573 28.8725 25.504 30.1372L22.1052 31.3183C21.7058 31.4571 21.4146 31.8041 21.3474 32.2216C21.2803 32.6392 21.4478 33.0599 21.7835 33.3171L24.64 35.5044C24.3601 35.6985 24.0527 35.8565 23.722 35.9714ZM26.0375 33.6782L24.8766 32.7894L26.2586 32.3092C26.271 32.7726 26.197 33.2356 26.0375 33.6782ZM31.4491 36.7389L31.7763 31.1668L39.8388 34.1959L31.4491 36.7389ZM43.0716 25.6335C43.063 25.0039 42.55 24.4995 41.9223 24.4995C41.917 24.4995 41.9117 24.4995 41.9062 24.4996C41.2713 24.5082 40.7638 25.03 40.7724 25.6649L40.8216 29.2621C39.6934 28.916 38.764 28.067 38.3548 26.8888C37.6713 24.9218 38.7155 22.7655 40.6825 22.082C42.6503 21.3983 44.8061 22.4435 45.4892 24.4097C46.1747 26.3825 45.1312 28.5569 43.1208 29.2295L43.0716 25.6335Z" fill="#F9F9F9"/>
</g>
<defs>
<clipPath id="clip0_802_5421">
<rect width="46" height="46" fill="white" transform="translate(2 2)"/>
</clipPath>
</defs>
</svg>
