<svg width="50" height="50" viewBox="0 0 50 50" fill="none" xmlns="http://www.w3.org/2000/svg">
<rect width="50" height="50" fill="#393636"/>
<circle cx="21" cy="5" r="2" fill="#E28800"/>
<circle cx="21" cy="11" r="2" fill="#E28800"/>
<circle cx="21" cy="17" r="2" fill="#E28800"/>
<circle cx="21" cy="23" r="2" fill="#E28800"/>
<circle cx="21" cy="29" r="2" fill="#E28800"/>
<circle cx="21" cy="35" r="2" fill="#E28800"/>
<circle cx="21" cy="41" r="2" fill="#E28800"/>
<circle cx="21" cy="46" r="2" fill="#E28800"/>
<circle cx="16" cy="3" r="2" fill="#E28800"/>
<circle cx="16" cy="9" r="2" fill="#E28800"/>
<circle cx="16" cy="15" r="2" fill="#E28800"/>
<circle cx="16" cy="21" r="2" fill="#E28800"/>
<circle cx="16" cy="27" r="2" fill="#E28800"/>
<circle cx="16" cy="33" r="2" fill="#E28800"/>
<circle cx="16" cy="39" r="2" fill="#E28800"/>
<circle cx="16" cy="44" r="2" fill="#E28800"/>
<circle cx="32" cy="5" r="2" fill="#E28800"/>
<circle cx="32" cy="11" r="2" fill="#E28800"/>
<circle cx="32" cy="17" r="2" fill="#E28800"/>
<circle cx="32" cy="23" r="2" fill="#E28800"/>
<circle cx="32" cy="29" r="2" fill="#E28800"/>
<circle cx="32" cy="35" r="2" fill="#E28800"/>
<circle cx="32" cy="41" r="2" fill="#E28800"/>
<circle cx="32" cy="46" r="2" fill="#E28800"/>
<circle cx="27" cy="3" r="2" fill="#E28800"/>
<circle cx="27" cy="9" r="2" fill="#E28800"/>
<circle cx="27" cy="15" r="2" fill="#E28800"/>
<circle cx="27" cy="21" r="2" fill="#E28800"/>
<circle cx="27" cy="27" r="2" fill="#E28800"/>
<circle cx="27" cy="33" r="2" fill="#E28800"/>
<circle cx="27" cy="39" r="2" fill="#E28800"/>
<circle cx="27" cy="44" r="2" fill="#E28800"/>
<circle cx="43" cy="5" r="2" fill="#E28800"/>
<circle cx="43" cy="11" r="2" fill="#E28800"/>
<circle cx="43" cy="17" r="2" fill="#E28800"/>
<circle cx="43" cy="23" r="2" fill="#E28800"/>
<circle cx="43" cy="29" r="2" fill="#E28800"/>
<circle cx="43" cy="35" r="2" fill="#E28800"/>
<circle cx="43" cy="41" r="2" fill="#E28800"/>
<circle cx="43" cy="46" r="2" fill="#E28800"/>
<circle cx="38" cy="3" r="2" fill="#E28800"/>
<circle cx="38" cy="9" r="2" fill="#E28800"/>
<circle cx="38" cy="15" r="2" fill="#E28800"/>
<circle cx="38" cy="21" r="2" fill="#E28800"/>
<circle cx="38" cy="27" r="2" fill="#E28800"/>
<circle cx="38" cy="33" r="2" fill="#E28800"/>
<circle cx="38" cy="39" r="2" fill="#E28800"/>
<circle cx="38" cy="44" r="2" fill="#E28800"/>
<circle cx="47" cy="9" r="2" fill="#E28800"/>
<circle cx="47" cy="14" r="2" fill="#E28800"/>
<circle cx="47" cy="20" r="2" fill="#E28800"/>
<circle cx="47" cy="26" r="2" fill="#E28800"/>
<circle cx="47" cy="32" r="2" fill="#E28800"/>
<circle cx="47" cy="38" r="2" fill="#E28800"/>
<circle cx="47" cy="46" r="2" fill="#E28800"/>
<circle cx="47" cy="3" r="2" fill="#E28800"/>
<circle cx="43" cy="5" r="2" fill="#E28800"/>
<circle cx="43" cy="11" r="2" fill="#E28800"/>
<circle cx="43" cy="17" r="2" fill="#E28800"/>
<circle cx="43" cy="23" r="2" fill="#E28800"/>
<circle cx="43" cy="29" r="2" fill="#E28800"/>
<circle cx="43" cy="35" r="2" fill="#E28800"/>
<circle cx="43" cy="41" r="2" fill="#E28800"/>
<circle cx="43" cy="46" r="2" fill="#E28800"/>
<circle cx="10" cy="5" r="2" fill="#E28800"/>
<circle cx="10" cy="11" r="2" fill="#E28800"/>
<circle cx="10" cy="17" r="2" fill="#E28800"/>
<circle cx="10" cy="23" r="2" fill="#E28800"/>
<circle cx="10" cy="29" r="2" fill="#E28800"/>
<circle cx="10" cy="35" r="2" fill="#E28800"/>
<circle cx="10" cy="41" r="2" fill="#E28800"/>
<circle cx="10" cy="46" r="2" fill="#E28800"/>
<circle cx="5" cy="3" r="2" fill="#E28800"/>
<circle cx="5" cy="9" r="2" fill="#E28800"/>
<circle cx="5" cy="15" r="2" fill="#E28800"/>
<circle cx="5" cy="21" r="2" fill="#E28800"/>
<circle cx="5" cy="27" r="2" fill="#E28800"/>
<circle cx="5" cy="33" r="2" fill="#E28800"/>
<circle cx="5" cy="39" r="2" fill="#E28800"/>
<circle cx="5" cy="44" r="2" fill="#E28800"/>
<circle cx="19" cy="5" r="2" fill="#FFE27F"/>
<circle cx="19" cy="11" r="2" fill="#FFE27F"/>
<circle cx="19" cy="17" r="2" fill="#FFE27F"/>
<circle cx="19" cy="23" r="2" fill="#FFE27F"/>
<circle cx="19" cy="29" r="2" fill="#FFE27F"/>
<circle cx="19" cy="35" r="2" fill="#FFE27F"/>
<circle cx="19" cy="41" r="2" fill="#FFE27F"/>
<circle cx="19" cy="46" r="2" fill="#FFE27F"/>
<circle cx="14" cy="3" r="2" fill="#FFE27F"/>
<circle cx="14" cy="9" r="2" fill="#FFE27F"/>
<circle cx="14" cy="15" r="2" fill="#FFE27F"/>
<circle cx="14" cy="21" r="2" fill="#FFE27F"/>
<circle cx="14" cy="27" r="2" fill="#FFE27F"/>
<circle cx="14" cy="33" r="2" fill="#FFE27F"/>
<circle cx="14" cy="39" r="2" fill="#FFE27F"/>
<circle cx="14" cy="44" r="2" fill="#FFE27F"/>
<circle cx="30" cy="5" r="2" fill="#FFE27F"/>
<circle cx="30" cy="11" r="2" fill="#FFE27F"/>
<circle cx="30" cy="17" r="2" fill="#FFE27F"/>
<circle cx="30" cy="23" r="2" fill="#FFE27F"/>
<circle cx="30" cy="29" r="2" fill="#FFE27F"/>
<circle cx="30" cy="35" r="2" fill="#FFE27F"/>
<circle cx="30" cy="41" r="2" fill="#FFE27F"/>
<circle cx="30" cy="46" r="2" fill="#FFE27F"/>
<circle cx="25" cy="3" r="2" fill="#FFE27F"/>
<circle cx="25" cy="9" r="2" fill="#FFE27F"/>
<circle cx="25" cy="15" r="2" fill="#FFE27F"/>
<circle cx="25" cy="21" r="2" fill="#FFE27F"/>
<circle cx="25" cy="27" r="2" fill="#FFE27F"/>
<circle cx="25" cy="33" r="2" fill="#FFE27F"/>
<circle cx="25" cy="39" r="2" fill="#FFE27F"/>
<circle cx="25" cy="44" r="2" fill="#FFE27F"/>
<circle cx="41" cy="5" r="2" fill="#FFE27F"/>
<circle cx="41" cy="11" r="2" fill="#FFE27F"/>
<circle cx="41" cy="17" r="2" fill="#FFE27F"/>
<circle cx="41" cy="23" r="2" fill="#FFE27F"/>
<circle cx="41" cy="29" r="2" fill="#FFE27F"/>
<circle cx="41" cy="35" r="2" fill="#FFE27F"/>
<circle cx="41" cy="41" r="2" fill="#FFE27F"/>
<circle cx="41" cy="46" r="2" fill="#FFE27F"/>
<circle cx="36" cy="3" r="2" fill="#FFE27F"/>
<circle cx="36" cy="9" r="2" fill="#FFE27F"/>
<circle cx="36" cy="15" r="2" fill="#FFE27F"/>
<circle cx="36" cy="21" r="2" fill="#FFE27F"/>
<circle cx="36" cy="27" r="2" fill="#FFE27F"/>
<circle cx="36" cy="33" r="2" fill="#FFE27F"/>
<circle cx="36" cy="39" r="2" fill="#FFE27F"/>
<circle cx="36" cy="44" r="2" fill="#FFE27F"/>
<circle cx="46" cy="7" r="2" fill="#FFE27F"/>
<circle cx="46" cy="13" r="2" fill="#FFE27F"/>
<circle cx="46" cy="19" r="2" fill="#FFE27F"/>
<circle cx="46" cy="25" r="2" fill="#FFE27F"/>
<circle cx="46" cy="31" r="2" fill="#FFE27F"/>
<circle cx="46" cy="37" r="2" fill="#FFE27F"/>
<circle cx="46" cy="43" r="2" fill="#FFE27F"/>
<circle cx="46" cy="2" r="2" fill="#FFE27F"/>
<circle cx="41" cy="5" r="2" fill="#FFE27F"/>
<circle cx="41" cy="11" r="2" fill="#FFE27F"/>
<circle cx="41" cy="17" r="2" fill="#FFE27F"/>
<circle cx="41" cy="23" r="2" fill="#FFE27F"/>
<circle cx="41" cy="29" r="2" fill="#FFE27F"/>
<circle cx="41" cy="35" r="2" fill="#FFE27F"/>
<circle cx="41" cy="41" r="2" fill="#FFE27F"/>
<circle cx="41" cy="46" r="2" fill="#FFE27F"/>
<circle cx="8" cy="5" r="2" fill="#FFE27F"/>
<circle cx="8" cy="11" r="2" fill="#FFE27F"/>
<circle cx="8" cy="17" r="2" fill="#FFE27F"/>
<circle cx="8" cy="23" r="2" fill="#FFE27F"/>
<circle cx="8" cy="29" r="2" fill="#FFE27F"/>
<circle cx="8" cy="35" r="2" fill="#FFE27F"/>
<circle cx="8" cy="41" r="2" fill="#FFE27F"/>
<circle cx="8" cy="46" r="2" fill="#FFE27F"/>
<circle cx="3" cy="3" r="2" fill="#FFE27F"/>
<circle cx="3" cy="9" r="2" fill="#FFE27F"/>
<circle cx="3" cy="15" r="2" fill="#FFE27F"/>
<circle cx="3" cy="21" r="2" fill="#FFE27F"/>
<circle cx="3" cy="27" r="2" fill="#FFE27F"/>
<circle cx="3" cy="33" r="2" fill="#FFE27F"/>
<circle cx="3" cy="39" r="2" fill="#FFE27F"/>
<circle cx="3" cy="44" r="2" fill="#FFE27F"/>
<rect x="28" y="28" width="20" height="20" fill="#DD0000"/>
<path d="M44.4659 36H42.7045C42.6004 35.4934 42.4181 35.0483 42.1577 34.6648C41.902 34.2812 41.5895 33.9593 41.2202 33.6989C40.8556 33.4337 40.4508 33.2348 40.0057 33.1023C39.5606 32.9697 39.0966 32.9034 38.6136 32.9034C37.733 32.9034 36.9351 33.1259 36.2202 33.571C35.5099 34.0161 34.9441 34.6719 34.5227 35.5384C34.1061 36.4048 33.8977 37.4678 33.8977 38.7273C33.8977 39.9867 34.1061 41.0497 34.5227 41.9162C34.9441 42.7827 35.5099 43.4384 36.2202 43.8835C36.9351 44.3286 37.733 44.5511 38.6136 44.5511C39.0966 44.5511 39.5606 44.4848 40.0057 44.3523C40.4508 44.2197 40.8556 44.0232 41.2202 43.7628C41.5895 43.4976 41.902 43.1733 42.1577 42.7898C42.4181 42.4015 42.6004 41.9564 42.7045 41.4545H44.4659C44.3333 42.1979 44.0919 42.8632 43.7415 43.4503C43.3911 44.0374 42.9555 44.5369 42.4347 44.9489C41.9138 45.3561 41.3291 45.6662 40.6804 45.8793C40.0365 46.0923 39.3475 46.1989 38.6136 46.1989C37.3731 46.1989 36.2699 45.8958 35.304 45.2898C34.3381 44.6837 33.5781 43.822 33.0241 42.7045C32.4702 41.5871 32.1932 40.2614 32.1932 38.7273C32.1932 37.1932 32.4702 35.8674 33.0241 34.75C33.5781 33.6326 34.3381 32.7708 35.304 32.1648C36.2699 31.5587 37.3731 31.2557 38.6136 31.2557C39.3475 31.2557 40.0365 31.3622 40.6804 31.5753C41.3291 31.7884 41.9138 32.1009 42.4347 32.5128C42.9555 32.92 43.3911 33.4171 43.7415 34.0043C44.0919 34.5866 44.3333 35.2519 44.4659 36Z" fill="white"/>
</svg>
